<svg width="87" height="13" viewBox="0 0 87 13" fill="none" xmlns="http://www.w3.org/2000/svg">
<path d="M1.75738 12.8451C1.64022 12.8451 1.52306 12.8354 1.4059 12.8161L1.33756 12.7967C0.953541 12.7193 0.637863 12.5225 0.390529 12.2063C0.130176 11.8836 0 11.5254 0 11.1318C0 11.0285 0.00976321 10.9285 0.0292896 10.8317V1.67461C0.0292896 1.44875 0.0748513 1.23256 0.165975 1.02606C0.257098 0.819558 0.380765 0.638868 0.536977 0.483991C0.693188 0.329114 0.875435 0.209729 1.08372 0.125838C1.29851 0.0419459 1.52306 0 1.75738 0C1.9917 0 2.21625 0.0419459 2.43104 0.125838C2.64583 0.209729 2.83133 0.329114 2.98754 0.483991C3.14375 0.638868 3.26742 0.819558 3.35855 1.02606C3.44967 1.23256 3.49523 1.44875 3.49523 1.67461V9.41847L6.93188 9.43783C7.1662 9.43783 7.3875 9.483 7.59578 9.57334C7.80406 9.65724 7.98956 9.77985 8.15228 9.94118C8.3085 10.0961 8.42891 10.28 8.51352 10.4929C8.60465 10.7059 8.65021 10.9285 8.65021 11.1608C8.65021 11.6513 8.48423 12.0546 8.15228 12.3708C7.99607 12.5192 7.81057 12.6354 7.59578 12.7193C7.3875 12.8032 7.1662 12.8451 6.93188 12.8451H1.75738Z" fill="#454545"/>
<path d="M14.7229 12.9419C14.0655 12.9419 13.4374 12.8258 12.8386 12.5934C12.2398 12.3547 11.7126 12.0127 11.257 11.5674C10.7818 11.1092 10.4108 10.5607 10.144 9.92182C9.88363 9.28295 9.75345 8.56987 9.75345 7.78258V5.20774C9.75345 4.42045 9.88363 3.70414 10.144 3.05882C10.4108 2.4135 10.7818 1.86175 11.257 1.40357C11.7126 0.964755 12.2398 0.629188 12.8386 0.396873C13.4374 0.158104 14.0655 0.0387193 14.7229 0.0387193C15.3738 0.0387193 15.9987 0.158104 16.5975 0.396873C17.2028 0.629188 17.73 0.964755 18.1791 1.40357C18.6477 1.86821 19.0122 2.42318 19.2726 3.0685C19.5394 3.70737 19.6729 4.42045 19.6729 5.20774L16.1776 5.1787C16.1776 4.51402 16.0084 4.04616 15.67 3.77513C15.4422 3.60089 15.1265 3.51378 14.7229 3.51378C14.3129 3.51378 13.9939 3.60089 13.7661 3.77513C13.4212 4.04616 13.2487 4.51402 13.2487 5.1787V7.81162C13.2487 8.46984 13.4212 8.93125 13.7661 9.19583C13.9939 9.37652 14.3129 9.46686 14.7229 9.46686C15.1265 9.46686 15.4422 9.37652 15.67 9.19583C16.0084 8.9377 16.1776 8.4763 16.1776 7.81162V5.20774H19.6729V7.78258C19.6729 8.56987 19.5394 9.28295 19.2726 9.92182C19.0122 10.5607 18.6477 11.1092 18.1791 11.5674C17.73 12.0127 17.2028 12.3547 16.5975 12.5934C15.9987 12.8258 15.3738 12.9419 14.7229 12.9419Z" fill="#454545"/>
<path d="M27.0734 12.9419C26.4095 12.9419 25.7781 12.829 25.1793 12.6031C24.587 12.3773 24.0663 12.0514 23.6172 11.6255C23.1486 11.1866 22.7841 10.651 22.5237 10.0186C22.2634 9.3862 22.1332 8.67635 22.1332 7.88905V5.10127C22.1332 4.31397 22.2666 3.60412 22.5335 2.9717C22.8004 2.33284 23.1746 1.79077 23.6563 1.3455C24.1184 0.919583 24.6489 0.596922 25.2477 0.377513C25.8465 0.151651 26.4778 0.0387193 27.1417 0.0387193C28.1376 0.0387193 28.9902 0.254902 29.6997 0.687267C30.2139 1.00347 30.7118 1.46488 31.1935 2.07148C31.4343 2.42641 31.5547 2.80069 31.5547 3.19434C31.5547 3.4202 31.5091 3.63639 31.418 3.84289C31.3334 4.04939 31.213 4.23008 31.0568 4.38496C30.8876 4.54629 30.6923 4.67213 30.471 4.76247C30.2497 4.85282 30.0121 4.89799 29.7583 4.89799C29.4979 4.89799 29.2636 4.84959 29.0553 4.75279C28.847 4.64954 28.6778 4.49789 28.5476 4.29784C28.4305 4.13006 28.3589 4.01713 28.3328 3.95905C28.2743 3.8558 28.2027 3.77513 28.1181 3.71705C28.0334 3.65252 27.9195 3.60089 27.7763 3.56217C27.6136 3.52991 27.4021 3.51378 27.1417 3.51378C26.9269 3.51378 26.7414 3.52668 26.5852 3.55249C26.4355 3.57185 26.2956 3.62348 26.1654 3.70737C25.8074 3.94614 25.6284 4.40109 25.6284 5.07223V7.91809C25.6284 8.59568 25.7977 9.04741 26.1361 9.27327C26.2663 9.35716 26.403 9.41201 26.5462 9.43783C26.6894 9.45718 26.8651 9.46686 27.0734 9.46686C27.5746 9.46686 27.9521 9.3862 28.2059 9.22487C28.3166 9.15388 28.4142 9.06999 28.4988 8.97319C28.5834 8.86994 28.6746 8.74411 28.7722 8.59568V8.46984H28.6843C28.45 8.46984 28.2287 8.42467 28.0204 8.33433C27.8121 8.24398 27.6299 8.11814 27.4737 7.95681C27.3175 7.80194 27.1938 7.61802 27.1027 7.40506C27.0181 7.19211 26.9758 6.96947 26.9758 6.73716C26.9758 6.50484 27.0181 6.28543 27.1027 6.07893C27.1938 5.87242 27.3175 5.69173 27.4737 5.53686C27.6299 5.37553 27.8121 5.24969 28.0204 5.15934C28.2287 5.069 28.45 5.02383 28.6843 5.02383L30.2562 5.04319C30.484 5.04319 30.7053 5.08836 30.9201 5.1787C31.1349 5.26905 31.3236 5.39166 31.4864 5.54654C31.6491 5.70787 31.7728 5.89178 31.8574 6.09829C31.9485 6.29834 31.9941 6.51129 31.9941 6.73716V8.42144C31.9941 8.67957 31.9875 8.88285 31.9745 9.03127C31.955 9.28295 31.9192 9.46686 31.8671 9.58302C31.4441 10.6607 30.7964 11.4996 29.9243 12.0998C29.0976 12.6612 28.1473 12.9419 27.0734 12.9419Z" fill="#454545"/>
<path d="M35.9482 12.9903C35.7138 12.9903 35.4893 12.9451 35.2745 12.8548C35.0662 12.7709 34.884 12.6515 34.7278 12.4966C34.5715 12.3418 34.4479 12.1611 34.3568 11.9546C34.2656 11.7481 34.2201 11.5287 34.2201 11.2964V1.69397C34.2201 1.46165 34.2624 1.24224 34.347 1.03574C34.4381 0.829238 34.565 0.645321 34.7278 0.483991C34.884 0.329114 35.0662 0.209729 35.2745 0.125838C35.4893 0.0419459 35.7138 0 35.9482 0C36.1825 0 36.407 0.0419459 36.6218 0.125838C36.8366 0.209729 37.0221 0.329114 37.1783 0.483991C37.341 0.645321 37.4647 0.829238 37.5493 1.03574C37.6404 1.24224 37.686 1.46165 37.686 1.69397V11.2964C37.686 11.5287 37.6404 11.7481 37.5493 11.9546C37.4582 12.1611 37.3345 12.3418 37.1783 12.4966C37.0221 12.6515 36.8366 12.7709 36.6218 12.8548C36.407 12.9451 36.1825 12.9903 35.9482 12.9903Z" fill="#454545"/>
<path d="M41.396 12.8451C41.0901 12.8451 40.8102 12.7999 40.5564 12.7096C40.3091 12.6193 40.0975 12.4934 39.9218 12.3321C39.7526 12.1708 39.6224 11.9804 39.5313 11.761C39.4401 11.5351 39.3946 11.2899 39.3946 11.0253C39.3946 10.4962 39.5671 10.0993 39.912 9.8347C40.257 9.57012 40.7517 9.43783 41.396 9.43783H44.6081C44.6732 9.43783 44.7448 9.42492 44.8229 9.39911C44.901 9.37329 44.9726 9.33457 45.0377 9.28295C45.2004 9.15388 45.2818 8.99255 45.2818 8.79896C45.2818 8.52147 45.1744 8.3311 44.9596 8.22785C44.8555 8.18268 44.7806 8.15686 44.735 8.15041C44.6634 8.1375 44.6277 8.13105 44.6277 8.13105H43.0948C42.5611 8.11814 42.0567 8.01167 41.5815 7.81162C41.1064 7.61157 40.6898 7.34053 40.3318 6.99851C39.9739 6.65004 39.694 6.24994 39.4922 5.79821C39.2969 5.34003 39.1993 4.84636 39.1993 4.3172C39.1993 3.76868 39.31 3.24274 39.5313 2.73939C39.7526 2.22959 40.0585 1.78109 40.449 1.39389C40.846 1.00025 41.2984 0.696947 41.8061 0.483991C42.3203 0.264582 42.8605 0.154877 43.4268 0.154877H46.1898C46.8276 0.154877 47.3256 0.300074 47.6835 0.590469C48.0415 0.880864 48.2205 1.29064 48.2205 1.81981C48.2205 2.4006 48.0415 2.84264 47.6835 3.14594C47.3256 3.44924 46.8276 3.60089 46.1898 3.60089H43.1925C43.0232 3.60089 42.8865 3.65252 42.7824 3.75577C42.6783 3.85257 42.6262 3.97841 42.6262 4.13328C42.6262 4.29461 42.6652 4.43336 42.7434 4.54952C42.828 4.65922 42.9419 4.71407 43.0851 4.71407H44.5593C45.1321 4.71407 45.6723 4.81087 46.18 5.00447C46.6942 5.19161 47.1433 5.45942 47.5273 5.80789C47.9179 6.15637 48.2173 6.56937 48.4255 7.04691C48.6403 7.52445 48.7477 8.0407 48.7477 8.59568C48.7477 9.15066 48.6403 9.68627 48.4255 10.2025C48.2108 10.7188 47.9113 11.1737 47.5273 11.5674C47.1433 11.9675 46.6942 12.2805 46.18 12.5063C45.6723 12.7322 45.1321 12.8451 44.5593 12.8451H41.396Z" fill="#454545"/>
<path d="M54.5764 13C54.3486 13 54.1338 12.9581 53.932 12.8742C53.7302 12.7903 53.5545 12.6709 53.4048 12.516C53.2551 12.3611 53.1379 12.1804 53.0533 11.9739C52.9687 11.7674 52.9264 11.548 52.9264 11.3157V3.57185H51.0128C50.7785 3.57185 50.5539 3.52991 50.3391 3.44602C50.1308 3.35567 49.9486 3.23306 49.7924 3.07818C49.6362 2.92331 49.5125 2.73939 49.4214 2.52643C49.3368 2.31348 49.2945 2.09084 49.2945 1.85853C49.2945 1.62621 49.3368 1.4068 49.4214 1.2003C49.5125 0.993795 49.6362 0.813105 49.7924 0.658228C49.9551 0.496897 50.1406 0.374286 50.3489 0.290395C50.5572 0.20005 50.7785 0.154877 51.0128 0.154877H58.1009C58.3287 0.154877 58.55 0.20005 58.7648 0.290395C58.9796 0.38074 59.1651 0.503351 59.3213 0.658228C59.484 0.819558 59.6077 1.0067 59.6923 1.21966C59.7834 1.43261 59.829 1.65525 59.829 1.88757C59.829 2.11988 59.7834 2.33929 59.6923 2.54579C59.6077 2.74584 59.484 2.92331 59.3213 3.07818C59.1651 3.23306 58.9796 3.35567 58.7648 3.44602C58.5565 3.52991 58.3352 3.57185 58.1009 3.57185H56.324V11.3157C56.324 11.548 56.2784 11.7674 56.1873 11.9739C56.0962 12.1804 55.9693 12.3611 55.8065 12.516C55.6438 12.6709 55.4551 12.7903 55.2403 12.8742C55.0255 12.9581 54.8042 13 54.5764 13Z" fill="#454545"/>
<path d="M63.0704 12.9903C62.836 12.9903 62.6115 12.9451 62.3967 12.8548C62.1884 12.7709 62.0062 12.6515 61.85 12.4966C61.6937 12.3418 61.5701 12.1611 61.479 11.9546C61.3878 11.7481 61.3423 11.5287 61.3423 11.2964V1.69397C61.3423 1.46165 61.3846 1.24224 61.4692 1.03574C61.5603 0.829238 61.6872 0.645321 61.85 0.483991C62.0062 0.329114 62.1884 0.209729 62.3967 0.125838C62.6115 0.0419459 62.836 0 63.0704 0C63.3047 0 63.5292 0.0419459 63.744 0.125838C63.9588 0.209729 64.1443 0.329114 64.3005 0.483991C64.4632 0.645321 64.5869 0.829238 64.6715 1.03574C64.7626 1.24224 64.8082 1.46165 64.8082 1.69397V11.2964C64.8082 11.5287 64.7626 11.7481 64.6715 11.9546C64.5804 12.1611 64.4567 12.3418 64.3005 12.4966C64.1443 12.6515 63.9588 12.7709 63.744 12.8548C63.5292 12.9451 63.3047 12.9903 63.0704 12.9903Z" fill="#454545"/>
<path d="M72.1306 12.9419C71.4667 12.9419 70.8386 12.829 70.2463 12.6031C69.654 12.3773 69.1333 12.0514 68.6842 11.6255C68.2156 11.1866 67.8511 10.651 67.5907 10.0186C67.3304 9.3862 67.2002 8.67635 67.2002 7.88905V5.10127C67.2002 4.31397 67.3304 3.60412 67.5907 2.9717C67.8511 2.33284 68.2156 1.79077 68.6842 1.3455C69.1333 0.919583 69.654 0.596922 70.2463 0.377513C70.8386 0.151651 71.4667 0.0387193 72.1306 0.0387193C73.1265 0.0387193 73.9791 0.254902 74.6886 0.687267C75.2028 1.00347 75.7007 1.46488 76.1824 2.07148C76.4297 2.43286 76.5534 2.8136 76.5534 3.2137C76.5534 3.43956 76.5078 3.65575 76.4167 3.86225C76.3256 4.0623 76.1986 4.23976 76.0359 4.39464C75.8732 4.54952 75.6779 4.67213 75.4501 4.76247C75.2288 4.85282 74.9945 4.89799 74.7472 4.89799C74.4933 4.89799 74.259 4.84959 74.0442 4.75279C73.8359 4.64954 73.67 4.49789 73.5463 4.29784C73.4291 4.13006 73.3575 4.01713 73.3315 3.95905C73.2729 3.8558 73.1981 3.77513 73.1069 3.71705C73.0223 3.65252 72.9084 3.60089 72.7652 3.56217C72.6025 3.52991 72.391 3.51378 72.1306 3.51378C71.9158 3.51378 71.7368 3.52668 71.5937 3.55249C71.4505 3.57185 71.317 3.62348 71.1934 3.70737C70.8614 3.94614 70.6954 4.40109 70.6954 5.07223V7.91809C70.6954 8.59568 70.8614 9.04741 71.1934 9.27327C71.317 9.35716 71.4505 9.41201 71.5937 9.43783C71.7368 9.45718 71.9158 9.46686 72.1306 9.46686C72.391 9.46686 72.596 9.45073 72.7457 9.41847C72.9019 9.3862 73.0256 9.33457 73.1167 9.26359C73.2013 9.19906 73.2729 9.11839 73.3315 9.02159C73.4291 8.85381 73.53 8.70539 73.6342 8.57632C73.7448 8.4408 73.888 8.3311 74.0637 8.24721C74.272 8.15041 74.4966 8.10201 74.7374 8.10201C74.9912 8.10201 75.2288 8.14718 75.4501 8.23753C75.6714 8.32142 75.8634 8.4408 76.0261 8.59568C76.1889 8.75701 76.3158 8.94093 76.4069 9.14743C76.5045 9.34748 76.5534 9.56044 76.5534 9.7863C76.5534 10.1993 76.4297 10.5768 76.1824 10.9188C75.7007 11.5319 75.2028 11.9901 74.6886 12.2934C73.9791 12.7257 73.1265 12.9419 72.1306 12.9419Z" fill="#454545"/>
<path d="M79.6483 12.8451C79.3424 12.8451 79.0625 12.7999 78.8087 12.7096C78.5613 12.6193 78.3498 12.4934 78.1741 12.3321C78.0048 12.1708 77.8746 11.9804 77.7835 11.761C77.6924 11.5351 77.6468 11.2899 77.6468 11.0253C77.6468 10.4962 77.8193 10.0993 78.1643 9.8347C78.5093 9.57012 79.0039 9.43783 79.6483 9.43783H82.8604C82.9255 9.43783 82.9971 9.42492 83.0752 9.39911C83.1533 9.37329 83.2249 9.33457 83.29 9.28295C83.4527 9.15388 83.5341 8.99255 83.5341 8.79896C83.5341 8.52147 83.4267 8.3311 83.2119 8.22785C83.1077 8.18268 83.0329 8.15686 82.9873 8.15041C82.9157 8.1375 82.8799 8.13105 82.8799 8.13105H81.3471C80.8134 8.11814 80.3089 8.01167 79.8338 7.81162C79.3587 7.61157 78.9421 7.34053 78.5841 6.99851C78.2261 6.65004 77.9462 6.24994 77.7445 5.79821C77.5492 5.34003 77.4516 4.84636 77.4516 4.3172C77.4516 3.76868 77.5622 3.24274 77.7835 2.73939C78.0048 2.22959 78.3107 1.78109 78.7013 1.39389C79.0983 1.00025 79.5507 0.696947 80.0584 0.483991C80.5725 0.264582 81.1128 0.154877 81.679 0.154877H84.442C85.0799 0.154877 85.5778 0.300074 85.9358 0.590469C86.2938 0.880864 86.4728 1.29064 86.4728 1.81981C86.4728 2.4006 86.2938 2.84264 85.9358 3.14594C85.5778 3.44924 85.0799 3.60089 84.442 3.60089H81.4447C81.2755 3.60089 81.1388 3.65252 81.0347 3.75577C80.9305 3.85257 80.8785 3.97841 80.8785 4.13328C80.8785 4.29461 80.9175 4.43336 80.9956 4.54952C81.0802 4.65922 81.1941 4.71407 81.3373 4.71407H82.8116C83.3844 4.71407 83.9246 4.81087 84.4323 5.00447C84.9465 5.19161 85.3956 5.45942 85.7796 5.80789C86.1701 6.15637 86.4695 6.56937 86.6778 7.04691C86.8926 7.52445 87 8.0407 87 8.59568C87 9.15066 86.8926 9.68627 86.6778 10.2025C86.463 10.7188 86.1636 11.1737 85.7796 11.5674C85.3956 11.9675 84.9465 12.2805 84.4323 12.5063C83.9246 12.7322 83.3844 12.8451 82.8116 12.8451H79.6483Z" fill="#454545"/>
</svg>
